OneDof_KneeFl_states
version=1
nRows=37
nColumns=19
inDegrees=yes

# SIMM Motion File Header:
name OneDof_KneeFl_states
datacolumns 19
datarows 37
otherdata 1
range 2.98978228 3.12042914
endheader
time	/jointset/hip_r/hip_flexion_r/value	/jointset/hip_r/hip_flexion_r/speed	/jointset/walker_knee_r/knee_angle_r/value	/jointset/walker_knee_r/knee_angle_r/speed	/jointset/patellofemoral_r/knee_angle_r_beta/value	/jointset/patellofemoral_r/knee_angle_r_beta/speed	/jointset/ankle_r/ankle_angle_r/value	/jointset/ankle_r/ankle_angle_r/speed	/forceset/bflh_r/normalized_tendon_force	/forceset/bfsh_r/normalized_tendon_force	/forceset/gaslat_r/normalized_tendon_force	/forceset/gasmed_r/normalized_tendon_force	/forceset/recfem_r/normalized_tendon_force	/forceset/semimem_r/normalized_tendon_force	/forceset/semiten_r/normalized_tendon_force	/forceset/vasint_r/normalized_tendon_force	/forceset/vaslat_r/normalized_tendon_force	/forceset/vasmed_r/normalized_tendon_force
      2.98978228	      0.00000000	      0.00000000	  -1898.90174762	   1546.62476546	    -33.14208767	     26.99369445	     -0.00000000	     -0.00000000	      0.01089587	      0.06514007	      0.06463638	      0.04378920	      0.02451531	      0.04417977	      0.03341272	      0.01522695	      0.01349131	      0.01394227
      2.99026161	      0.00000000	      0.00000000	  -1898.15994767	   1548.50616385	    -33.12914082	     27.02653105	     -0.00000000	     -0.00000000	      0.01089587	      0.06514007	      0.06463638	      0.04378920	      0.02451531	      0.04417977	      0.03341272	      0.01522695	      0.01349131	      0.01394227
      2.99265828	      0.00000000	      0.00000000	  -1894.43723235	   1558.12988701	    -33.06416718	     27.19449670	     -0.00000000	     -0.00000000	      0.01089587	      0.06514007	      0.06463638	      0.04378920	      0.02451531	      0.04417977	      0.03341272	      0.01522695	      0.01349131	      0.01394227
      3.00105175	      0.00000000	      0.00000000	  -1881.20723840	   1595.31862201	    -32.83326022	     27.84356257	     -0.00000000	     -0.00000000	      0.01089587	      0.06514007	      0.06463638	      0.04378920	      0.02451531	      0.04417977	      0.03341272	      0.01522695	      0.01349131	      0.01394227
      3.01422397	      0.00000000	      0.00000000	  -1859.73509502	   1668.19138008	    -32.45850062	     29.11543214	     -0.00000000	     -0.00000000	      0.01089587	      0.06514007	      0.06463638	      0.04378920	      0.02451531	      0.04417977	      0.03341272	      0.01522695	      0.01349131	      0.01394227
      3.01831425	      0.00000000	      0.00000000	  -1852.85754691	   1695.03415700	    -32.33846476	     29.58392697	     -0.00000000	     -0.00000000	      0.01089587	      0.06514007	      0.06463638	      0.04378920	      0.02451531	      0.04417977	      0.03341272	      0.01522695	      0.01349131	      0.01394227
      3.01994074	      0.00000000	      0.00000000	  -1850.09148178	   1706.28014094	    -32.29018782	     29.78020642	     -0.00000000	     -0.00000000	      0.01089587	      0.06514007	      0.06463638	      0.04378920	      0.02451531	      0.04417977	      0.03341272	      0.01522695	      0.01349131	      0.01394227
      3.02040130	      0.00000000	      0.00000000	  -1849.30483919	   1709.79933802	    -32.27645832	     29.84162800	     -0.00000000	     -0.00000000	      0.01089587	      0.06514007	      0.06463638	      0.04378920	      0.02451531	      0.04417977	      0.03341272	      0.01522695	      0.01349131	      0.01394227
      3.02086186	      0.00000000	      0.00000000	  -1848.51654473	   1713.39796924	    -32.26269998	     29.90443596	     -0.00000000	     -0.00000000	      0.01089587	      0.06514007	      0.06463638	      0.04378920	      0.02451531	      0.04417977	      0.03341272	      0.01522695	      0.01349131	      0.01394227
      3.02232374	      0.00000000	      0.00000000	  -1846.00333589	   1724.97776372	    -32.21883621	     30.10654150	     -0.00000000	     -0.00000000	      0.01089587	      0.06514007	      0.06463638	      0.04378920	      0.02451531	      0.04417977	      0.03341272	      0.01522695	      0.01349131	      0.01394227
      3.02285013	      0.00000000	      0.00000000	  -1845.09421002	   1729.31786739	    -32.20296897	     30.18229060	     -0.00000000	     -0.00000000	      0.01089587	      0.06514007	      0.06463638	      0.04378920	      0.02451531	      0.04417977	      0.03341272	      0.01522695	      0.01349131	      0.01394227
      3.02337652	      0.00000000	      0.00000000	  -1844.18261408	   1734.24962420	    -32.18705862	     30.26836599	     -0.00000000	     -0.00000000	      0.01089587	      0.06514007	      0.06463638	      0.04378920	      0.02451531	      0.04417977	      0.03341272	      0.01522695	      0.01349131	      0.01394227
      3.02600848	      0.00000000	      0.00000000	  -1839.58530177	   1759.31353302	    -32.10682039	     30.70581373	     -0.00000000	     -0.00000000	      0.01089587	      0.06514007	      0.06463638	      0.04378920	      0.02451531	      0.04417977	      0.03341272	      0.01522695	      0.01349131	      0.01394227
      3.03685778	      0.00000000	      0.00000000	  -1819.91024447	   1869.56429477	    -31.76342586	     32.63005252	     -0.00000000	     -0.00000000	      0.01089587	      0.06514007	      0.06463638	      0.04378920	      0.02451531	      0.04417977	      0.03341272	      0.01522695	      0.01349131	      0.01394227
      3.04770708	      0.00000000	      0.00000000	  -1798.97720220	   1990.89224123	    -31.39807535	     34.74762466	     -0.00000000	     -0.00000000	      0.01089587	      0.06514007	      0.06463638	      0.04378920	      0.02451531	      0.04417977	      0.03341272	      0.01522695	      0.01349131	      0.01394227
      3.05203687	      0.00000000	      0.00000000	  -1790.24792859	   2041.40747679	    -31.24572078	     35.62928184	     -0.00000000	     -0.00000000	      0.01089587	      0.06514007	      0.06463638	      0.04378920	      0.02451531	      0.04417977	      0.03341272	      0.01522695	      0.01349131	      0.01394227
      3.05340801	      0.00000000	      0.00000000	  -1787.43766569	   2057.80730070	    -31.19667244	     35.91551277	     -0.00000000	     -0.00000000	      0.01089587	      0.06514007	      0.06463638	      0.04378920	      0.02451531	      0.04417977	      0.03341272	      0.01522695	      0.01349131	      0.01394227
      3.05477916	      0.00000000	      0.00000000	  -1784.60485165	   2074.33939635	    -31.14723051	     36.20405227	     -0.00000000	     -0.00000000	      0.01089587	      0.06514007	      0.06463638	      0.04378920	      0.02451531	      0.04417977	      0.03341272	      0.01522695	      0.01349131	      0.01394227
      3.05562564	      0.00000000	      0.00000000	  -1782.84462925	   2084.51110444	    -31.11650883	     36.38158207	     -0.00000000	     -0.00000000	      0.01089587	      0.06514007	      0.06463638	      0.04378920	      0.02451531	      0.04417977	      0.03341272	      0.01522695	      0.01349131	      0.01394227
      3.05647211	      0.00000000	      0.00000000	  -1781.07586911	   2094.57900504	    -31.08563814	     36.55730008	     -0.00000000	     -0.00000000	      0.01089587	      0.06514007	      0.06463638	      0.04378920	      0.02451531	      0.04417977	      0.03341272	      0.01522695	      0.01349131	      0.01394227
      3.06070451	      0.00000000	      0.00000000	  -1772.10539985	   2144.10163960	    -30.92907392	     37.42163311	     -0.00000000	     -0.00000000	      0.01089587	      0.06514007	      0.06463638	      0.04378920	      0.02451531	      0.04417977	      0.03341272	      0.01522695	      0.01349131	      0.01394227
      3.06990983	      0.00000000	      0.00000000	  -1751.90465160	   2241.55222381	    -30.57650435	     39.12246666	     -0.00000000	     -0.00000000	      0.01089587	      0.06514007	      0.06463638	      0.04378920	      0.02451531	      0.04417977	      0.03341272	      0.01522695	      0.01349131	      0.01394227
      3.07771044	      0.00000000	      0.00000000	  -1734.16547287	   2302.36786862	    -30.26689728	     40.18389990	     -0.00000000	     -0.00000000	      0.01089587	      0.06514007	      0.06463638	      0.04378920	      0.02451531	      0.04417977	      0.03341272	      0.01522695	      0.01349131	      0.01394227
      3.08551105	      0.00000000	      0.00000000	  -1716.05583634	   2336.42990988	    -29.95082449	     40.77839467	     -0.00000000	     -0.00000000	      0.01089587	      0.06514007	      0.06463638	      0.04378920	      0.02451531	      0.04417977	      0.03341272	      0.01522695	      0.01349131	      0.01394227
      3.09211391	      0.00000000	      0.00000000	  -1700.58468938	   2347.45315814	    -29.68080204	     40.97078665	     -0.00000000	     -0.00000000	      0.01089587	      0.06514007	      0.06463638	      0.04378920	      0.02451531	      0.04417977	      0.03341272	      0.01522695	      0.01349131	      0.01394227
      3.09478471	      0.00000000	      0.00000000	  -1694.31376497	   2348.08338967	    -29.57135376	     40.98178626	     -0.00000000	     -0.00000000	      0.01089587	      0.06514007	      0.06463638	      0.04378920	      0.02451531	      0.04417977	      0.03341272	      0.01522695	      0.01349131	      0.01394227
      3.09566419	      0.00000000	      0.00000000	  -1692.24862557	   2348.25177538	    -29.53531028	     40.98472515	     -0.00000000	     -0.00000000	      0.01089587	      0.06514007	      0.06463638	      0.04378920	      0.02451531	      0.04417977	      0.03341272	      0.01522695	      0.01349131	      0.01394227
      3.09654367	      0.00000000	      0.00000000	  -1690.18331589	   2348.39620247	    -29.49926382	     40.98724587	     -0.00000000	     -0.00000000	      0.01089587	      0.06514007	      0.06463638	      0.04378920	      0.02451531	      0.04417977	      0.03341272	      0.01522695	      0.01349131	      0.01394227
      3.09989788	      0.00000000	      0.00000000	  -1682.30625268	   2348.09423871	    -29.36178314	     40.98197561	     -0.00000000	     -0.00000000	      0.01089587	      0.06514007	      0.06463638	      0.04378920	      0.02451531	      0.04417977	      0.03341272	      0.01522695	      0.01349131	      0.01394227
      3.10325210	      0.00000000	      0.00000000	  -1674.43387524	   2345.82727385	    -29.22438423	     40.94240961	     -0.00000000	     -0.00000000	      0.01089587	      0.06514007	      0.06463638	      0.04378920	      0.02451531	      0.04417977	      0.03341272	      0.01522695	      0.01349131	      0.01394227
      3.10660632	      0.00000000	      0.00000000	  -1666.56893148	   2343.80763403	    -29.08711507	     40.90716025	     -0.00000000	     -0.00000000	      0.01089587	      0.06514007	      0.06463638	      0.04378920	      0.02451531	      0.04417977	      0.03341272	      0.01522695	      0.01349131	      0.01394227
      3.10957171	      0.00000000	      0.00000000	  -1659.62063714	   2342.59828304	    -28.96584445	     40.88605309	     -0.00000000	     -0.00000000	      0.01089587	      0.06514007	      0.06463638	      0.04378920	      0.02451531	      0.04417977	      0.03341272	      0.01522695	      0.01349131	      0.01394227
      3.11080735	      0.00000000	      0.00000000	  -1656.72617624	   2342.52621946	    -28.91532658	     40.88479534	     -0.00000000	     -0.00000000	      0.01089587	      0.06514007	      0.06463638	      0.04378920	      0.02451531	      0.04417977	      0.03341272	      0.01522695	      0.01349131	      0.01394227
      3.11204299	      0.00000000	      0.00000000	  -1653.83112186	   2343.41378735	    -28.86479835	     40.90028633	     -0.00000000	     -0.00000000	      0.01089587	      0.06514007	      0.06463638	      0.04378920	      0.02451531	      0.04417977	      0.03341272	      0.01522695	      0.01349131	      0.01394227
      3.11822122	      0.00000000	      0.00000000	  -1639.33054497	   2351.93682726	    -28.61171554	     41.04904143	     -0.00000000	     -0.00000000	      0.01089587	      0.06514007	      0.06463638	      0.04378920	      0.02451531	      0.04417977	      0.03341272	      0.01522695	      0.01349131	      0.01394227
      3.11986040	      0.00000000	      0.00000000	  -1635.47237459	   2355.59033316	    -28.54437776	     41.11280714	     -0.00000000	     -0.00000000	      0.01089587	      0.06514007	      0.06463638	      0.04378920	      0.02451531	      0.04417977	      0.03341272	      0.01522695	      0.01349131	      0.01394227
      3.12042914	      0.00000000	      0.00000000	  -1634.13227164	   2357.09686351	    -28.52098855	     41.13910106	     -0.00000000	     -0.00000000	      0.01089587	      0.06514007	      0.06463638	      0.04378920	      0.02451531	      0.04417977	      0.03341272	      0.01522695	      0.01349131	      0.01394227
